<svg width="17" height="16" viewBox="0 0 17 16" fill="none" xmlns="http://www.w3.org/2000/svg">
<path fill-rule="evenodd" clip-rule="evenodd" d="M0.626483 3.48208C-0.065991 1.40465 2.05759 -0.496048 4.04584 0.421608L15.5477 5.73018C17.4842 6.62394 17.4842 9.37622 15.5477 10.27L4.04584 15.5785C2.05759 16.4962 -0.0659864 14.5955 0.626492 12.518L1.86896 8.79065C2.04001 8.27749 2.04001 7.72268 1.86896 7.20951L0.626483 3.48208ZM3.52201 1.55656L15.0239 6.86513C15.9921 7.31201 15.9921 8.68815 15.0239 9.13503L3.52202 14.4436C2.52789 14.9024 1.46611 13.952 1.81235 12.9133L3.05481 9.18594C3.11613 9.00198 3.1628 8.81444 3.19481 8.62505H10.4658C10.811 8.62505 11.0908 8.34523 11.0908 8.00005C11.0908 7.65487 10.811 7.37505 10.4658 7.37505H3.1948C3.16279 7.18568 3.11613 6.99817 3.05481 6.81423L1.81234 3.08679C1.4661 2.04807 2.52789 1.09773 3.52201 1.55656Z" fill="white"/>
</svg>
