<svg width="166" height="25" viewBox="0 0 166 25" fill="none" xmlns="http://www.w3.org/2000/svg">
<path d="M44.4723 24.2413H41.4796V20.7996H33.1897V24.2413H30.1969V18.166H31.1845C31.5037 17.5276 31.7631 16.7694 31.9626 15.8915C32.1621 14.9937 32.3218 14.046 32.4415 13.0484C32.5612 12.0508 32.641 11.0333 32.6809 9.9958C32.7208 8.95831 32.7407 7.97071 32.7407 7.03298V5.74609H42.8862V18.166H44.4723V24.2413ZM10.2053 2.81319H8.58921C7.09283 2.81319 5.96556 3.15237 5.20739 3.83073C4.44923 4.50908 4.07015 5.40691 4.07015 6.52421C4.07015 7.16266 4.13998 7.72131 4.27964 8.20015C4.4193 8.65904 4.61882 9.088 4.87819 9.48703C5.15752 9.88607 5.49669 10.2652 5.89573 10.6243C6.31471 10.9635 6.80353 11.3226 7.36218 11.7017L9.18776 12.9287L3.92051 20.7996H0L4.72855 13.7667C4.0502 13.2878 3.44167 12.799 2.90297 12.3002C2.38423 11.8014 1.94529 11.2727 1.58616 10.7141C1.22703 10.1554 0.947706 9.55686 0.748189 8.91841C0.568623 8.26 0.478841 7.53177 0.478841 6.7337C0.478841 5.73611 0.64843 4.82831 0.987609 4.01029C1.34674 3.17232 1.86548 2.46404 2.54384 1.88544C3.2222 1.28688 4.06017 0.827996 5.05776 0.508769C6.07529 0.16959 7.24247 0 8.55928 0H13.8265V20.7996H10.2053V2.81319ZM49.0213 14.455C49.0812 15.8117 49.4004 16.8193 49.979 17.4777C50.5576 18.1361 51.5352 18.4653 52.9119 18.4653C53.7499 18.4653 54.5779 18.3256 55.3959 18.0463C56.2339 17.747 56.9222 17.4178 57.4609 17.0587V19.7821C56.9422 20.1412 56.2838 20.4505 55.4857 20.7099C54.6876 20.9692 53.7299 21.0989 52.6126 21.0989C50.3781 21.0989 48.6522 20.4605 47.4352 19.1836C46.2381 17.9067 45.6395 15.9514 45.6395 13.3178C45.6395 12.1805 45.7592 11.133 45.9986 10.1754C46.258 9.21769 46.6471 8.38969 47.1658 7.69138C47.6846 6.97312 48.333 6.42445 49.1111 6.04537C49.9092 5.64633 50.8369 5.44682 51.8944 5.44682C52.7523 5.44682 53.5304 5.5765 54.2287 5.83587C54.947 6.09525 55.5555 6.51423 56.0543 7.09283C56.5531 7.67143 56.9322 8.41962 57.1916 9.3374C57.4709 10.2352 57.6105 11.3425 57.6105 12.6594V14.455H49.0213ZM28.4012 5.74609V20.7996H25.1391V14.4251H20.0814V20.7996H16.8193V5.74609H20.0814V11.7915H25.1391V5.74609H28.4012ZM63.5661 13.228V20.7996H60.304V5.74609H63.5661V13.0185L68.8334 5.74609H72.2451L67.1275 12.809L72.9035 20.7996H69.0728L63.5661 13.228ZM79.8766 21.0989C77.5223 21.0989 75.7766 20.4305 74.6393 19.0938C73.522 17.757 72.9634 15.8217 72.9634 13.2878C72.9634 12.1506 73.103 11.1031 73.3824 10.1454C73.6816 9.16781 74.1106 8.33981 74.6692 7.66146C75.2478 6.96315 75.9561 6.42445 76.7941 6.04537C77.6321 5.64633 78.6097 5.44682 79.727 5.44682C80.5849 5.44682 81.3231 5.51665 81.9416 5.65631C82.5601 5.77602 83.049 5.94561 83.4081 6.16508V9.03812C83.0689 8.81865 82.6 8.60916 82.0015 8.40964C81.4029 8.21013 80.7745 8.11037 80.1161 8.11037C78.899 8.11037 77.9613 8.53933 77.3029 9.39725C76.6644 10.2352 76.3452 11.5022 76.3452 13.1981C76.3452 14.8141 76.6345 16.091 77.2131 17.0288C77.7917 17.9665 78.7494 18.4354 80.0861 18.4354C80.8044 18.4354 81.4229 18.3456 81.9416 18.166C82.4803 17.9665 82.9692 17.7171 83.4081 17.4178V20.1712C82.9891 20.4704 82.4903 20.6999 81.9117 20.8595C81.3531 21.0191 80.6747 21.0989 79.8766 21.0989ZM39.6241 8.37972H35.6138V9.00819C35.6138 9.6666 35.5938 10.4048 35.5539 11.2228C35.514 12.0409 35.4442 12.8688 35.3444 13.7068C35.2447 14.5448 35.105 15.3528 34.9255 16.131C34.7658 16.9091 34.5563 17.5874 34.297 18.166H39.6241V8.37972ZM51.8345 8.08044C50.9167 8.08044 50.2284 8.41962 49.7695 9.09798C49.3106 9.75638 49.0612 10.724 49.0213 12.0009H54.2886V11.6119C54.2886 11.1131 54.2487 10.6542 54.1689 10.2352C54.0891 9.79629 53.9494 9.4172 53.7499 9.09798C53.5703 8.77875 53.3209 8.52935 53.0017 8.34979C52.7024 8.17022 52.3134 8.08044 51.8345 8.08044Z" fill="#2C4942"/>
<path d="M160.014 3.77087C158.578 3.77087 157.491 3.41174 156.752 2.69348C156.034 1.97522 155.675 1.07739 155.675 0H158.668C158.668 0.518745 158.787 0.897828 159.027 1.13725C159.286 1.37667 159.615 1.49638 160.014 1.49638C160.394 1.49638 160.693 1.37667 160.912 1.13725C161.132 0.877876 161.242 0.498793 161.242 0H164.234C164.234 0.518745 164.144 1.00756 163.965 1.46645C163.785 1.92534 163.516 2.32437 163.157 2.66355C162.818 3.00273 162.379 3.27208 161.84 3.4716C161.321 3.67111 160.713 3.77087 160.014 3.77087ZM157.381 5.74609V15.0835L162.828 5.74609H166V20.7997H162.558V11.4922L157.112 20.7997H153.939V5.74609H157.381Z" fill="#2C4942"/>
<path d="M142.964 14.5448C143.024 15.8017 143.333 16.7394 143.892 17.3579C144.45 17.9764 145.388 18.2857 146.705 18.2857C147.583 18.2857 148.441 18.146 149.279 17.8667C150.137 17.5874 150.845 17.2582 151.403 16.8791V19.7821C150.885 20.1412 150.206 20.4505 149.368 20.7098C148.53 20.9692 147.543 21.0989 146.406 21.0989C144.111 21.0989 142.345 20.4604 141.108 19.1835C139.891 17.9066 139.283 15.9513 139.283 13.3177C139.283 12.1805 139.413 11.133 139.672 10.1753C139.931 9.21765 140.32 8.38965 140.839 7.69134C141.378 6.97308 142.046 6.42441 142.844 6.04533C143.662 5.64629 144.61 5.44678 145.687 5.44678C146.585 5.44678 147.393 5.57646 148.111 5.83584C148.83 6.09521 149.438 6.51419 149.937 7.09279C150.456 7.67139 150.855 8.41958 151.134 9.33736C151.413 10.2352 151.553 11.3425 151.553 12.6593V14.5448H142.964ZM145.627 8.25997C144.77 8.25997 144.121 8.56922 143.682 9.18772C143.243 9.80622 143.004 10.714 142.964 11.9111H147.932V11.6119C147.932 11.133 147.892 10.6941 147.812 10.295C147.752 9.87606 147.633 9.51692 147.453 9.21765C147.273 8.91837 147.034 8.68893 146.735 8.52931C146.436 8.34975 146.066 8.25997 145.627 8.25997Z" fill="#2C4942"/>
<path d="M124.771 5.74609H128.333V17.9865H132.942V5.74609H136.503V17.9865H138.089V24.2413H134.797V20.7997H124.771V5.74609Z" fill="#2C4942"/>
<path d="M113.162 5.74609V15.0835L118.608 5.74609H121.781V20.7997H118.339V11.4922L112.892 20.7997H109.72V5.74609H113.162Z" fill="#2C4942"/>
<path d="M91.6045 17.358C91.6643 17.4178 91.7441 17.4677 91.8439 17.5076C92.0434 17.5874 92.3028 17.6273 92.622 17.6273C93.041 17.6273 93.3602 17.4877 93.5797 17.2083C93.8191 16.929 93.9987 16.5001 94.1184 15.9215C94.2381 15.3429 94.3179 14.6146 94.3578 13.7367C94.3977 12.8589 94.4376 11.8314 94.4775 10.6542L94.7469 0H106.718V20.7997H103.097V2.81319H98.0988L97.9192 10.5944C97.8793 12.3102 97.7995 13.8265 97.6798 15.1433C97.5601 16.4402 97.3306 17.5375 96.9914 18.4354C96.6722 19.3132 96.2034 19.9816 95.5848 20.4405C94.9663 20.8795 94.1384 21.0989 93.1009 21.0989C92.622 21.0989 92.2529 21.049 91.9935 20.9493C91.8539 20.9094 91.7242 20.8595 91.6045 20.7997V17.358Z" fill="#2C4942"/>
</svg>
